<svg width="32" height="32" viewBox="0 0 32 32" fill="none" xmlns="http://www.w3.org/2000/svg">
<path fill-rule="evenodd" clip-rule="evenodd" d="M11.6042 17.3719C10.7664 16.7502 9.88347 16.5272 9.10408 17.2303C6.89624 18.8082 5.53092 19.8693 4.87341 20.5349C3.62341 21.8003 3.79249 23.8819 4.87234 24.9779C5.45234 25.5665 5.65152 25.7658 6.26541 26.3702C9.6338 29.7367 16.7544 27.6836 22.2177 22.2257C27.6798 16.769 29.734 9.64906 26.3585 6.27541C25.8208 5.71769 25.3483 5.24548 24.9547 4.87306C23.8196 3.79908 21.8298 3.63604 20.5371 4.88013C19.8744 5.51796 18.8645 6.81992 17.2187 9.12065C16.5886 9.8253 16.7252 10.6608 17.2277 11.4268C17.4695 11.7952 17.714 12.0634 18.2208 12.5697L19.1408 13.4891C19.2619 13.6102 18.4384 15.2546 16.8406 16.8508C15.242 18.4479 13.5975 19.2709 13.477 19.1503C13.2284 18.9018 12.9216 18.5951 12.5564 18.2303C12.3956 18.0696 12.3178 17.9928 12.2142 17.8943C11.9986 17.6891 11.8029 17.5192 11.6042 17.3719ZM20.8374 11.7931L19.9173 10.8735C19.6384 10.5948 19.4669 10.4142 19.3486 10.2673C20.796 8.25184 21.7061 7.08459 22.2014 6.60782C22.4989 6.32157 23.0416 6.36604 23.3046 6.61488C23.6686 6.95926 24.1162 7.40667 24.6458 7.95571C26.8283 10.1372 25.17 15.8846 20.5208 20.5293C15.8702 25.1754 10.1219 26.8328 7.95566 24.6678C7.34429 24.0658 7.15366 23.8751 6.58194 23.2948C6.36758 23.0773 6.31945 22.4847 6.58088 22.22C7.08709 21.7076 8.30424 20.757 10.2521 19.3587C10.342 19.4311 10.4436 19.5215 10.5592 19.6315C10.6441 19.7123 10.7123 19.7795 10.8595 19.9266C11.2244 20.2912 11.531 20.5976 11.7792 20.8458C13.3427 22.4095 16.0038 21.0778 18.5369 18.5472C21.0683 16.0183 22.4014 13.3562 20.8374 11.7931Z" fill="#171717"/>
</svg>
