<svg version="1.1" xmlns="http://www.w3.org/2000/svg" xmlns:xlink="http://www.w3.org/1999/xlink">

    <symbol viewBox="0 0 96 40" id="logo">
        <path d="M47.8188 13.1105C73.7311 13.1105 94.7371 10.479 94.7371 7.23286C94.7371 3.98673 73.7311 1.35522 47.8188 1.35522C21.9065 1.35522 0.900391 3.98673 0.900391 7.23286C0.900391 10.479 21.9065 13.1105 47.8188 13.1105Z" />
        <path d="M52.0715 17.7604V22.4683C50.6708 22.4828 49.2556 22.4901 47.8187 22.4901H47.6082V37.493C45.4891 37.493 43.399 37.4712 41.3597 37.4348V22.432C39.843 22.4102 38.3552 22.3738 36.8965 22.3302V17.6223C38.3552 17.6659 39.843 17.7022 41.3597 17.724C43.399 17.7604 45.4891 17.7822 47.6082 17.7822H47.8187C49.2556 17.7822 50.6708 17.7749 52.0715 17.7604Z" />
        <path d="M60.9751 22.2574V25.0472C63.7982 24.9383 66.5124 24.8075 69.0887 24.6404V29.3483C66.5124 29.5154 63.7982 29.6462 60.9751 29.7552V32.5451C63.7982 32.4361 66.5124 32.3053 69.0887 32.1382V36.8534C66.5124 37.0205 63.7982 37.1513 60.9751 37.2602C58.9503 37.3329 56.8602 37.391 54.7266 37.4273V17.7165C56.8602 17.6802 58.9503 17.6221 60.9751 17.5494C63.7982 17.4405 66.5124 17.3097 69.0887 17.1426V21.8505C66.5124 22.0176 63.7982 22.1484 60.9751 22.2574Z" />
        <path d="M76.9432 21.2185V24.0084C79.1929 23.7904 81.2758 23.5362 83.1699 23.2673V27.9753C81.2758 28.2441 79.1929 28.4984 76.9432 28.7163V31.5062C79.1929 31.2883 81.2758 31.034 83.1699 30.7651V35.4803C81.2758 35.7492 79.1929 35.9962 76.9432 36.2214C75.2958 36.3885 73.554 36.5338 71.7324 36.6719V16.961C73.554 16.823 75.2958 16.6777 76.9432 16.5106C79.1929 16.2926 81.2758 16.0383 83.1699 15.7695V20.4775C81.2758 20.7463 79.1929 21.0006 76.9432 21.2185Z" />
        <path d="M94.7362 26.9073V31.6153C94.7362 32.538 93.0307 33.4098 89.9899 34.1872C88.7997 34.4996 87.4063 34.7902 85.8242 35.059V15.3555C87.4063 15.0794 88.7997 14.7888 89.9899 14.4836V29.4793C93.0307 28.7019 94.7362 27.83 94.7362 26.9073Z" />
        <path d="M35.6696 32.5744C35.597 33.1266 35.4664 33.657 35.2922 34.151C35.0382 34.8412 34.6898 35.4515 34.2472 35.9455C34.2472 35.9528 34.2471 35.9528 34.2399 35.9528C33.9351 36.2943 33.594 36.5704 33.2021 36.7738C32.8828 36.9481 32.5344 37.0644 32.1643 37.1225C32.1062 37.137 32.0337 37.1443 31.9756 37.1516C31.9684 37.1516 31.9684 37.1516 31.9611 37.1516C31.6781 37.137 31.4023 37.1225 31.1193 37.108C30.7709 37.0934 30.4226 37.0717 30.0815 37.0571C29.7767 37.0426 29.4719 37.0281 29.1743 37.0063C28.4776 36.9699 27.8027 36.9336 27.1278 36.89C26.7794 36.8682 26.4311 36.8464 26.09 36.8246C25.7344 36.8028 25.386 36.781 25.0449 36.752C24.6893 36.7302 24.3482 36.7011 23.9999 36.6793C23.6515 36.6503 23.3032 36.6285 22.9621 36.5994C22.6137 36.5703 22.2654 36.5413 21.9243 36.5195V31.8043C22.2654 31.8261 22.6137 31.8552 22.9621 31.8842C23.3032 31.9133 23.6515 31.9351 23.9999 31.9641C24.3482 31.9859 24.6893 32.015 25.0449 32.0368C25.386 32.0659 25.7344 32.0877 26.09 32.1094C26.4311 32.1312 26.7794 32.153 27.1278 32.1748L28.1655 32.233C28.7171 32.2693 29.1743 31.8334 29.1743 31.2812C29.1743 30.8743 28.9203 30.5111 28.5357 30.3803C28.1583 30.2495 27.6503 30.0752 27.1278 29.8935C26.7721 29.77 26.4093 29.6465 26.09 29.5375C25.7924 29.4285 25.5166 29.3341 25.3134 29.2687C25.2771 29.2542 25.2481 29.2396 25.2191 29.2324C25.0159 29.167 24.8199 29.0871 24.624 29.0072C24.399 28.92 24.1958 28.7965 24.0797 28.7311C23.129 28.099 22.367 26.9147 21.9243 25.4835C21.8009 25.0984 21.7066 24.6915 21.6412 24.2774C21.5469 23.7471 21.4961 23.2022 21.4961 22.65C21.4961 22.2649 21.5179 21.8726 21.5759 21.4875C21.634 20.9572 21.7501 20.4268 21.9243 19.9182C22.0622 19.475 22.2436 19.0464 22.4686 18.6395C22.7298 18.2254 23.5209 16.9976 25.0449 17.0412H25.0812C25.4078 17.0702 25.7489 17.092 26.09 17.1138C26.4311 17.1356 26.7794 17.1574 27.1278 17.1792C28.093 17.2373 29.0727 17.2955 30.0815 17.3463C30.4226 17.3608 30.7709 17.3826 31.1193 17.3972C31.4676 17.4117 31.816 17.4335 32.1643 17.448C32.5054 17.4626 32.8538 17.4771 33.2021 17.4916C33.5432 17.5061 33.8915 17.5207 34.2399 17.5352V22.2431C33.8915 22.2286 33.5432 22.2141 33.2021 22.1996C32.8538 22.185 32.5054 22.1705 32.1643 22.156C31.816 22.1414 31.4676 22.1196 31.1193 22.1051C30.7709 22.0906 30.4226 22.0688 30.0815 22.0542C29.6678 22.0324 29.2614 22.0106 28.855 21.9889L28.2164 21.9525C27.6285 21.9162 27.1278 22.3884 27.1278 22.9769C27.1278 23.4274 27.4108 23.8197 27.839 23.9578C28.2744 24.0958 28.9711 24.321 30.0815 24.677C30.0815 24.677 31.0249 24.9676 31.1846 25.0185C31.7361 25.1783 31.9756 25.28 32.4401 25.4835C33.2384 25.8758 33.6521 26.2609 33.7609 26.3698C34.4649 27.0891 34.9656 27.9464 35.2922 28.8618C35.3938 29.167 35.4809 29.4721 35.5535 29.7773C35.7567 30.7072 35.7857 31.6663 35.6696 32.5744Z" />
        <path d="M11.1114 28.4113C11.0679 28.1789 11.0098 27.9536 10.9445 27.7429C10.7413 27.0527 10.4365 26.4424 10.0664 25.9411C9.7688 25.527 9.4132 25.1928 9.02856 24.9603C8.70198 24.7642 8.34637 24.6406 7.98351 24.6261C7.93271 24.6116 7.88917 24.6116 7.83836 24.6116C7.88917 24.6116 7.93271 24.6116 7.98351 24.597C8.35363 24.5753 8.70924 24.4372 9.02856 24.2193C9.43497 23.9359 9.79058 23.5145 10.0664 22.9914C10.0664 22.9914 10.1534 22.8316 10.168 22.7953C10.5163 22.0687 10.7195 21.1824 10.7413 20.2088C10.7485 20.0635 10.7485 19.9182 10.7413 19.7656C10.705 18.7121 10.4582 17.7313 10.0664 16.9394C9.78332 16.3655 9.42771 15.8932 9.02856 15.5517C8.77455 15.3265 8.49878 15.1594 8.21574 15.0577C8.13591 15.0432 8.05608 15.0286 7.98351 15.0141C7.83111 14.985 7.68596 14.956 7.54081 14.9197C7.33761 14.8833 7.1344 14.8325 6.93846 14.7889C5.82083 14.5491 4.84836 14.2876 4.02829 14.0188C3.64365 13.8952 3.30256 13.7717 2.99049 13.6482C2.58409 13.4811 2.23573 13.314 1.94544 13.1397C1.26326 12.7473 0.900391 12.3332 0.900391 11.9045V31.6153C0.900391 31.906 1.07456 32.1966 1.41566 32.4799C1.5608 32.6107 1.74224 32.7269 1.94544 32.8504C1.96721 32.865 1.98898 32.8722 2.01076 32.8868C2.28653 33.0393 2.61311 33.1992 2.99049 33.3518C3.30256 33.4753 3.64365 33.606 4.02829 33.7223C4.57258 33.9039 5.18945 34.0783 5.86438 34.2454C5.95147 34.2672 6.03856 34.289 6.12564 34.3108C6.38691 34.3689 6.65542 34.4343 6.93846 34.4924C7.27229 34.5723 7.62064 34.645 7.98351 34.7176C8.10688 34.7467 8.23751 34.7685 8.36814 34.7903C8.59312 34.7758 8.8181 34.7249 9.02856 34.6304C9.4132 34.4706 9.7688 34.1945 10.0664 33.824C10.5526 33.25 10.9227 32.4581 11.1114 31.5282C11.1767 31.2303 11.2275 30.9106 11.2493 30.5837C11.2711 30.3003 11.2711 30.0097 11.2638 29.7046C11.2493 29.2541 11.1985 28.8255 11.1114 28.4113ZM4.02829 18.7267C4.61613 18.9156 5.27654 19.1045 6.01678 19.2861C6.08936 19.2934 6.15467 19.3079 6.21999 19.337C6.61188 19.4968 6.91668 20.0417 6.93846 20.6956V20.7755C6.93846 21.502 6.59011 22.0833 6.12564 22.1051C5.34186 21.9162 4.64516 21.72 4.02829 21.5166V18.7267ZM6.93846 29.4358C6.80057 29.5883 6.63365 29.6755 6.44496 29.6755C5.53054 29.4648 4.72499 29.2396 4.02829 29.0144V26.2245C4.76853 26.4642 5.63215 26.704 6.61914 26.922C6.73526 26.9801 6.85137 27.0673 6.93846 27.1908C7.14166 27.4523 7.27955 27.8374 7.29407 28.266C7.31584 28.7528 7.17069 29.1815 6.93846 29.4358Z" />
        <path d="M16.2962 31.2054C18.0968 31.0994 19.4216 28.7176 19.2552 25.8856C19.0889 23.0536 17.4944 20.8437 15.6938 20.9497C13.8932 21.0557 12.5684 23.4374 12.7348 26.2694C12.9011 29.1015 14.4956 31.3114 16.2962 31.2054Z" />
    </symbol>

    <symbol viewBox="0 0 32 32" id="burger-link">
        <rect y="7" width="32" height="3" rx="1" />
        <rect y="15" width="32" height="3" rx="1" />
        <rect y="23" width="32" height="3" rx="1" />
    </symbol>

    <svg viewBox="0 0 32 25" id="burger-close">
        <rect x="5.74609" y="0.125732" width="32" height="3" rx="1.5" transform="rotate(45 5.74609 0.125732)" />
        <rect x="3.625" y="22.7532" width="32" height="3" rx="1.5" transform="rotate(-45 3.625 22.7532)" />
    </svg>

    <symbol viewBox="0 0 20 20" id="tech-step-project-link">
        <path d="M9 11V20H11V11L20 11V9L11 9V0H9V9L0 9V11L9 11Z" />
    </symbol>

    <symbol viewBox="0 0 9 15" id="text-hint-icon">
        <path d="M3.15657 10H4.90052C4.90052 9.61246 4.90975 9.87082 4.9282 9.62476C4.94665 9.37871 5.03893 9.11112 5.20502 8.822C5.38956 8.49597 5.6633 8.20377 6.02624 7.94541C6.39533 7.6809 6.73366 7.38255 7.04123 7.05037C7.40417 6.66898 7.69637 6.24145 7.91782 5.76779C8.13927 5.29412 8.25 4.78355 8.25 4.23607C8.25 3.79316 8.17926 3.36871 8.03777 2.96271C7.89629 2.55671 7.68099 2.19378 7.39187 1.8739C7.01663 1.43714 6.54604 1.12342 5.9801 0.932723C5.42032 0.735875 4.8267 0.637451 4.19925 0.637451C3.72559 0.637451 3.255 0.711269 2.78749 0.858905C2.31997 1.00039 1.90475 1.22492 1.54181 1.53249C1.14812 1.84622 0.843618 2.24606 0.628316 2.73203C0.413014 3.218 0.286909 3.72549 0.25 4.25452H1.96626C1.96011 3.9654 2.00317 3.69166 2.09544 3.4333C2.18772 3.17494 2.33535 2.95656 2.53835 2.77817C2.7352 2.58132 2.98126 2.43676 3.27653 2.34449C3.57795 2.25222 3.89783 2.20608 4.23616 2.20608C4.59295 2.20608 4.93435 2.26144 5.26038 2.37217C5.59256 2.47674 5.86938 2.66436 6.09083 2.93503C6.36765 3.25491 6.50606 3.69781 6.50606 4.26375C6.50606 4.58363 6.463 4.88505 6.37687 5.16802C6.29691 5.44483 6.13697 5.71857 5.89706 5.98924C5.62024 6.28451 5.34035 6.53672 5.05738 6.74587C4.77441 6.94887 4.5099 7.15802 4.26384 7.37332C4.01778 7.58862 3.80556 7.86852 3.62716 8.213C3.43032 8.56979 3.30113 8.93888 3.23962 9.32027C3.18426 9.69551 3.15657 9.53864 3.15657 10ZM3.1658 14.1922H4.90052V12.1715H3.1658V14.1922Z" />
    </symbol>

    <symbol viewBox="0 0 23 9" id="text-hint-arrow">
        <path d="M-16 -84C-16 -88.4183 -12.4183 -92 -8 -92H206C210.418 -92 214 -88.4183 214 -84V-8C214 -3.58172 210.418 0 206 0H22.747C20.3728 0 18.1212 1.05458 16.6012 2.87852L11.5 9L6.39877 2.87853C4.87882 1.05459 2.62724 0 0.253 0H-8C-12.4183 0 -16 -3.58172 -16 -8V-84Z" />
    </symbol>

    <symbol viewBox="0 0 48 48" id="slider-prev">
        <path fill-rule="evenodd" clip-rule="evenodd" d="M25.2449 15.3437L18.2449 23.3907C17.9161 23.7687 17.9178 24.3317 18.2488 24.7078L25.2488 32.6607L26.7501 31.3393L20.3282 24.0432L26.7539 16.6563L25.2449 15.3437Z" />
    </symbol>

    <symbol viewBox="0 0 48 48" id="slider-next">
        <path fill-rule="evenodd" clip-rule="evenodd" d="M22.7551 15.3437L29.7551 23.3907C30.0839 23.7687 30.0822 24.3317 29.7512 24.7078L22.7512 32.6607L21.2499 31.3393L27.6718 24.0432L21.2461 16.6563L22.7551 15.3437Z" />
    </symbol>

    <symbol viewBox="0 0 41 34" id="back-link">
        <path d="M0.999998 16.9088L0.259866 16.2364C-0.0851183 16.6161 -0.086813 17.1952 0.255943 17.5769L0.999998 16.9088ZM14.2599 0.827538L0.259866 16.2364L1.74013 17.5813L15.7401 2.17246L14.2599 0.827538ZM0.255943 17.5769L14.2559 33.1681L15.744 31.8319L1.74405 16.2407L0.255943 17.5769Z" />
        <rect x="1" y="16" width="40" height="2" />
    </symbol>

    <symbol viewBox="0 0 44 44" id="file-input">
        <path d="M24 23.5V18C24 16.9391 23.5786 15.9217 22.8284 15.1716C22.0783 14.4214 21.0609 14 20 14C18.9391 14 17.9217 14.4214 17.1716 15.1716C16.4214 15.9217 16 16.9391 16 18V23.5C16 25.2239 16.6848 26.8772 17.9038 28.0962C19.1228 29.3152 20.7761 30 22.5 30C24.2239 30 25.8772 29.3152 27.0962 28.0962C28.3152 26.8772 29 25.2239 29 23.5V14H31V23.5C31 25.7543 30.1045 27.9163 28.5104 29.5104C26.9163 31.1045 24.7543 32 22.5 32C20.2457 32 18.0837 31.1045 16.4896 29.5104C14.8955 27.9163 14 25.7543 14 23.5V18C14 16.4087 14.6321 14.8826 15.7574 13.7574C16.8826 12.6321 18.4087 12 20 12C21.5913 12 23.1174 12.6321 24.2426 13.7574C25.3679 14.8826 26 16.4087 26 18V23.5C26 24.4283 25.6313 25.3185 24.9749 25.9749C24.3185 26.6313 23.4283 27 22.5 27C21.5717 27 20.6815 26.6313 20.0251 25.9749C19.3687 25.3185 19 24.4283 19 23.5V18H21V23.5C21 23.8978 21.158 24.2794 21.4393 24.5607C21.7206 24.842 22.1022 25 22.5 25C22.8978 25 23.2794 24.842 23.5607 24.5607C23.842 24.2794 24 23.8978 24 23.5Z" />
    </symbol>

    <symbol viewBox="0 0 21 18" id="main-page-link">
        <path d="M20 9.04706L20.7506 9.70776C21.0817 9.3317 21.0833 8.76873 20.7545 8.39075L20 9.04706ZM13.7506 17.6607L20.7506 9.70776L19.2494 8.38636L12.2494 16.3393L13.7506 17.6607ZM20.7545 8.39075L13.7545 0.343685L12.2455 1.65632L19.2455 9.70338L20.7545 8.39075ZM-1.72948e-07 10L19.2998 10V8L1.72948e-07 8L-1.72948e-07 10ZM8.00488 10L20.0049 10V8L8.00488 8V10Z" />
    </symbol>

    <symbol viewBox="0 0 16 16" id="window-close">
        <path fill-rule="evenodd" clip-rule="evenodd" d="M6.58647 8L0.222656 14.3638L1.63687 15.778L8.00068 9.41422L14.3648 15.7784L15.779 14.3642L9.4149 8L15.779 1.63589L14.3648 0.22168L8.00068 6.58579L1.63692 0.222017L0.222702 1.63623L6.58647 8Z" />
    </symbol>

    <symbol viewBox="0 0 44 44" id="objects-more">
        <path fill-rule="evenodd" clip-rule="evenodd" d="M30.6559 20.7545L22.6088 27.7545C22.2308 28.0833 21.6679 28.0816 21.2918 27.7506L13.3389 20.7506L14.6603 19.2493L21.9564 25.6712L29.3433 19.2455L30.6559 20.7545Z" />
    </symbol>

    <symbol viewBox="0 0 44 44" id="review-item">
        <path fill-rule="evenodd" clip-rule="evenodd" d="M21 23V32H23V23L32 23V21L23 21V12H21V21L12 21V23L21 23Z" />
    </symbol>

    <symbol viewBox="0 0 44 44" id="download">
        <path d="M22.9529 30L22.2922 30.7506C22.6683 31.0817 23.2313 31.0833 23.6093 30.7545L22.9529 30ZM14.3393 23.7506L22.2922 30.7506L23.6136 29.2494L15.6607 22.2494L14.3393 23.7506ZM23.6093 30.7545L31.6563 23.7545L30.3437 22.2455L22.2966 29.2455L23.6093 30.7545ZM22 10L22 29.2998H24L24 10L22 10ZM22 18.0049V30.0049H24V18.0049H22ZM14 34H32V32H14V34Z" />
    </symbol>

    <symbol viewBox="0 0 142 112" id="blockquote">
        <path d="M77.4645 -0.373831C77.4645 -9.34579 80.5693 -16.8598 86.7789 -22.9159C92.9885 -28.972 100.751 -32 110.065 -32C118.936 -32 126.476 -28.5233 132.686 -21.5701C138.895 -14.6168 142 -5.86915 142 4.6729C142 12.2991 140.337 20.7103 137.01 29.9065C133.462 39.1028 128.915 48.4112 123.371 57.8318C117.605 67.2523 111.174 76.5607 104.077 85.757C96.7586 95.1776 89.4402 103.925 82.1217 112L73.1399 104.598C83.1197 92.7103 91.4361 80.7103 98.0892 68.5981C104.742 56.486 108.734 44.5981 110.065 32.9346C101.194 32.2617 93.5429 28.8972 87.1116 22.8411C80.6802 16.7851 77.4645 9.04672 77.4645 -0.373831ZM-10.0081 -0.373838C-10.0081 -9.3458 -6.90334 -16.8598 -0.693729 -22.9159C5.51587 -28.972 13.2779 -32 22.5923 -32C31.4631 -32 39.0034 -28.5234 45.213 -21.5701C51.4226 -14.6168 54.5274 -5.86916 54.5274 4.6729C54.5274 12.2991 52.8641 20.7103 49.5375 29.9065C45.9892 39.1028 41.4429 48.4112 35.8986 57.8318C30.1325 67.2523 23.7011 76.5607 16.6044 85.757C9.28597 95.1776 1.96751 103.925 -5.35094 112L-14 104.598C-4.02031 92.7103 4.29611 80.7103 10.9493 68.5981C17.3806 56.486 21.2616 44.5981 22.5923 32.9346C13.7214 32.2617 6.07029 28.8972 -0.361076 22.8411C-6.79246 16.785 -10.0081 9.04672 -10.0081 -0.373838Z" />
    </symbol>

    <symbol viewBox="0 0 44 44" id="contacts-map">
        <path d="M20.5961 23.7162L11.7573 21.2414L29.9803 14.2446L23.4246 32.9086L20.5961 23.7162Z" stroke-width="2" />
    </symbol>

    <symbol viewBox="0 0 20 26" id="docs-icon">
        <path d="M1 9L1 26M1 9L9 1M1 9H9V1M9 1L19 1M19 0V26M0 25L20 25"  stroke-width="2" />
    </symbol>

    <symbol viewBox="0 0 44 44" id="catalogue-section-link">
        <path d="M32 22.0471L32.7506 22.7078C33.0817 22.3317 33.0833 21.7687 32.7545 21.3907L32 22.0471ZM25.7506 30.6607L32.7506 22.7078L31.2494 21.3864L24.2494 29.3393L25.7506 30.6607ZM32.7545 21.3907L25.7545 13.3437L24.2455 14.6563L31.2455 22.7034L32.7545 21.3907ZM12 23L31.2998 23V21L12 21L12 23ZM20.0049 23L32.0049 23V21L20.0049 21V23Z" />
    </symbol>

    <symbol viewBox="0 0 44 44" id="detail-split-info-item-link">
        <path d="M21 23V32H23V23L32 23V21L23 21V12H21V21L12 21V23L21 23Z" />
    </symbol>

    <symbol viewBox="0 0 17 16" id="detail-split-point-icon">
        <path fill-rule="evenodd" clip-rule="evenodd" d="M9.5 0H7.5V7H0.5V9H7.5V16H9.5V9H16.5V7H9.5V0Z" />
    </symbol>

    <symbol viewBox="0 0 253 233" id="about-blockquote">
        <path d="M148.337 51.1729C148.337 36.6558 153.372 24.4977 163.443 14.6986C173.513 4.89953 186.102 1.10814e-05 201.208 1.2402e-05C215.595 1.36598e-05 227.823 5.62541 237.894 16.8762C247.965 28.127 253 42.2812 253 59.3388C253 71.6784 250.303 85.2882 244.908 100.168C239.153 115.048 231.78 130.11 222.788 145.353C213.437 160.596 203.006 175.657 191.497 190.537C179.628 205.78 167.759 219.935 155.89 233L141.323 221.023C157.508 201.788 170.996 182.371 181.786 162.773C192.576 143.175 199.05 123.94 201.208 105.068C186.821 103.979 174.413 98.535 163.982 88.736C153.552 78.9369 148.337 66.4159 148.337 51.1729ZM6.47404 51.1729C6.47405 36.6557 11.5094 24.4976 21.5801 14.6986C31.6508 4.89952 44.2392 -1.32061e-06 59.3452 0C73.7319 1.25773e-06 85.9606 5.6254 96.0313 16.8762C106.102 28.127 111.137 42.2811 111.137 59.3388C111.137 71.6784 108.44 85.2882 103.045 100.168C97.2902 115.048 89.917 130.11 80.9253 145.353C71.5739 160.596 61.1435 175.657 49.6342 190.537C37.7651 205.78 25.8961 219.935 14.027 233L0 221.023C16.1851 201.788 29.6726 182.371 40.4626 162.773C50.893 143.175 57.1872 123.94 59.3452 105.068C44.9585 103.979 32.5499 98.535 22.1196 88.736C11.6892 78.9369 6.47404 66.4159 6.47404 51.1729Z" />
    </symbol>

    <symbol viewBox="0 0 44 44" id="detail-split-mobile-item-title">
        <path fill-rule="evenodd" clip-rule="evenodd" d="M26.6569 20.7546L18.6098 27.7546C18.2318 28.0834 17.6688 28.0817 17.2928 27.7507L9.33984 20.7507L10.6612 19.2494L17.9574 25.6713L25.3442 19.2456L26.6569 20.7546Z" />
    </symbol>

</svg>